<?xml version="1.0" encoding="UTF-8"?><svg id="a" xmlns="http://www.w3.org/2000/svg" xmlns:xlink="http://www.w3.org/1999/xlink" viewBox="0 0 1920 1080"><defs><style>.l{fill:#0568fd;}.m{stroke:url(#e);}.m,.n,.o,.p,.q,.r,.s,.t,.u,.v,.w,.x{fill:none;}.n{stroke:url(#h);}.y{fill:#ef8220;}.o{stroke:rgba(255,255,255,.2);}.p{stroke:url(#f);}.q{stroke:#fff;}.a`{fill:#8013d4;}.r{stroke:url(#c);}.s{stroke:url(#k);}.t{stroke:url(#i);}.u{stroke:url(#d);}.aa{fill:#d75050;}.ab{fill:#0393b7;}.v{stroke:url(#b);}.w{stroke:url(#g);}.x{stroke:url(#j);}</style><linearGradient id="b" x1="150.96" y1="174.95" x2="150.56" y2="181.9" gradientTransform="translate(1058.17 451.88) rotate(90) scale(1 -1)" gradientUnits="userSpaceOnUse"><stop offset="0" stop-color="#fff"/><stop offset="1" stop-color="#fff" stop-opacity="0"/></linearGradient><linearGradient id="c" x1="-354.19" y1="52.72" x2="-354.87" y2="64.53" xlink:href="#b"/><linearGradient id="d" x1="-228.27" y1="448.55" x2="-438.89" y2="448.55" xlink:href="#b"/><linearGradient id="e" x1="-16.26" y1="100.27" x2="-16.66" y2="107.22" xlink:href="#b"/><linearGradient id="f" x1="3.22" y1="-343.85" x2="40.39" y2="-333.56" gradientTransform="translate(-111.6 886.53) rotate(-90) scale(1 -1)" gradientUnits="userSpaceOnUse"><stop offset=".49" stop-color="#fff"/><stop offset="1" stop-color="#fff" stop-opacity="0"/></linearGradient><linearGradient id="g" x1="640.66" y1="-803.55" x2="640.26" y2="-796.6" gradientTransform="translate(-111.6 886.53) rotate(-90) scale(1 -1)" xlink:href="#b"/><linearGradient id="h" x1="14.92" y1="-932.34" x2="13.49" y2="-907.75" gradientTransform="translate(-111.6 886.53) rotate(-90) scale(1 -1)" xlink:href="#b"/><linearGradient id="i" x1="261.92" y1="-529.95" x2="145.77" y2="-529.95" gradientTransform="translate(-111.6 886.53) rotate(-90) scale(1 -1)" xlink:href="#b"/><linearGradient id="j" x1="-95.44" y1="-1308.72" x2="-482.68" y2="-1308.72" gradientTransform="translate(935.95 2311.36) rotate(-180) scale(1 -1)" xlink:href="#b"/><linearGradient id="k" x1="473.44" y1="-878.23" x2="473.03" y2="-871.28" gradientTransform="translate(-111.6 886.53) rotate(-90) scale(1 -1)" xlink:href="#b"/></defs><g><path class="o" d="M1527.71,2.84V200.94c0,12.97-10.51,23.48-23.48,23.48h-318.14c-12.97,0-23.48,10.51-23.48,23.48v359.02m-194.99-100.69h126.59c12.97,0,23.48-10.51,23.48-23.48V11.51"/><path class="o" d="M1890.61,752.53V437.84c0-12.97,10.51-23.48,23.48-23.48h21.72c12.97,0,23.48-10.51,23.48-23.48V196c0-12.97-10.51-23.48-23.48-23.48h-328.19c-25.94,0-46.97-21.03-46.97-46.97V7.91"/><g><circle class="aa" cx="1840.71" cy="172.35" r="4.7"/><circle class="q" cx="1840.71" cy="172.35" r="4.1"/></g><path class="o" d="M2056.17,801.49c-75.29-1.11-149.94,2.18-225.69-1.11-16.47-5.49-30.74-17.56-32.93-35.13-5.49-36.23-1.1-72.45-2.2-108.68-1.1-21.96-17.56-41.72-39.52-42.81-59.28-3.29-118.56,2.2-177.84-3.29-16.47-1.1-29.64-14.27-35.13-29.64-4.39-15.37-1.1-30.74-2.2-46.11-2.2-18.66-16.47-35.13-34.03-40.62-75.75-3.29-150.4-1.1-226.14,0-3.29,0-7.68-1.1-12.08,1.1s-7.68,4.39-12.08,6.59c-7.68,5.49-13.17,14.27-16.47,23.05-2.2,4.39-1.1,7.68-1.1,12.08-3.29,51.6,1.1,102.09-2.2,153.69-1.1,7.68-5.49,14.27-9.88,19.76-2.2,1.1-3.29,3.29-5.49,5.49-9.88,8.78-21.96,9.88-34.03,10.98-88.92,1.1-176.74,0-265.2-.48"/><path class="v" d="M1237.12,659.75v-114.29"/><path class="r" d="M1117.69,200.43V-5.83"/><path class="u" d="M1528.25,12.98V200.71c0,12.97-10.51,23.48-23.48,23.48h-20.08"/><g><circle class="a`" cx="1480.69" cy="224.49" r="4.7"/><circle class="q" cx="1480.69" cy="224.49" r="4.1"/></g><path class="m" d="M1162.43,492.53v-114.29"/><g><circle class="ab" cx="1162.63" cy="496.14" r="4.7"/><circle class="q" cx="1162.63" cy="496.14" r="4.1"/></g></g><g><path class="o" d="M397.36,750.9v-103.14c0-12.97,10.51-23.48,23.48-23.48h318.14c12.97,0,23.48-10.51,23.48-23.48V241.78m194.99,100.69h-126.59c-12.97,0-23.48,10.51-23.48,23.48v713.29"/><path class="o" d="M279.72,500.23c-1.29,107.91,1.71,214.91-1.29,322.91-3,5-5,10-11,13-12,5-24,1-36,2-11,1-19,11-19,21-2,54-1,183.29-1.4,237.44"/><g><circle class="ab" cx="806.39" cy="643.58" r="4.7"/><circle class="q" cx="806.39" cy="643.58" r="4.1"/></g><g><circle class="l" cx="211.03" cy="909.44" r="4.7"/><circle class="q" cx="211.03" cy="909.44" r="4.1"/></g><path class="p" d="M211.03,904.75v-42.57c0-12.97,10.51-23.48,23.48-23.48h12.92"/><path class="o" d="M-131.1,47.21c75.29,1.11,149.94-2.18,225.69,1.11,16.47,5.49,30.74,17.56,32.93,35.13,5.49,36.23,1.1,72.45,2.2,108.68,1.1,21.96,17.56,41.72,39.52,42.81,59.28,3.29,118.56-2.2,177.84,3.29,16.47,1.1,29.64,14.27,35.13,29.64,4.39,15.37,1.1,30.74,2.2,46.11,2.2,18.66,16.47,35.13,34.03,40.62,75.75,3.29,150.4,1.1,226.14,0,3.29,0,7.68,1.1,12.08-1.1,4.39-2.2,7.68-4.39,12.08-6.59,7.68-5.49,13.17-14.27,16.47-23.05,2.2-4.39,1.1-7.68,1.1-12.08,3.29-51.6-1.1-102.09,2.2-153.69,1.1-7.68,5.49-14.27,9.88-19.76,2.2-1.1,3.29-3.29,5.49-5.49,9.88-8.78,21.96-9.88,34.03-10.98,88.92-1.1,176.74,0,265.2,.48"/><path class="w" d="M687.95,188.95v114.29"/><path class="n" d="M806.59,648.28v448.31"/><path class="t" d="M396.82,740.76v-92.76c0-12.97,10.51-23.48,23.48-23.48h20.08"/><g><circle class="a`" cx="444.38" cy="624.22" r="4.7"/><circle class="q" cx="444.38" cy="624.22" r="4.1"/></g><path class="o" d="M1428.78,1023.63c-34.68-.12-342.18-.12-377.18-.12-8,0-16-5-20-13-1-2-2-5-2-7,0-35,0-70,.06-105.5"/><path class="x" d="M1418.63,1024.17h-365.26c-12.97,0-23.48-10.51-23.48-23.48v-20.08"/><g><circle class="a`" cx="1029.6" cy="976.6" r="4.7"/><circle class="q" cx="1029.6" cy="976.6" r="4.1"/></g><path class="s" d="M762.64,356.18v114.29"/><g><circle class="y" cx="762.44" cy="352.57" r="4.7"/><circle class="q" cx="762.44" cy="352.57" r="4.1"/></g></g><circle class="aa" cx="1237.12" cy="659.75" r="4.7"/><path class="q" d="M1241.22,659.75c0,2.26-2.19,4.1-4.1,4.1"/><path class="q" d="M1237.12,655.66c1.9,0,4.1,1.83,4.1,4.1"/><path class="q" d="M1237.11,663.85c-2.26,0-4.1-1.83-4.1-4.1"/><path class="q" d="M1233.02,659.75c0-2.26,1.83-4.1,4.1-4.1"/></svg>