<?xml version="1.0" encoding="UTF-8"?><svg id="a" xmlns="http://www.w3.org/2000/svg" xmlns:xlink="http://www.w3.org/1999/xlink" viewBox="0 0 1080 1920"><defs><style>.l{fill:#0568fd;}.m{stroke:url(#e);}.m,.n,.o,.p,.q,.r,.s,.t,.u,.v,.w,.x{fill:none;}.n{stroke:url(#h);}.y{fill:#ef8220;}.o{stroke:rgba(255,255,255,.2);}.p{stroke:url(#f);}.q{stroke:#fff;}.a`{fill:#8013d4;}.r{stroke:url(#c);}.s{stroke:url(#k);}.t{stroke:url(#i);}.u{stroke:url(#d);}.aa{fill:#d75050;}.ab{fill:#0393b7;}.v{stroke:url(#b);}.w{stroke:url(#g);}.x{stroke:url(#j);}</style><linearGradient id="b" x1="-269.04" y1="594.95" x2="-269.44" y2="601.9" gradientTransform="translate(216.03 641.01) rotate(-180) scale(1 -1)" gradientUnits="userSpaceOnUse"><stop offset="0" stop-color="#fff"/><stop offset="1" stop-color="#fff" stop-opacity="0"/></linearGradient><linearGradient id="c" x1="-774.19" y1="472.72" x2="-774.87" y2="484.53" xlink:href="#b"/><linearGradient id="d" x1="-648.27" y1="868.55" x2="-858.89" y2="868.55" xlink:href="#b"/><linearGradient id="e" x1="-436.26" y1="520.27" x2="-436.66" y2="527.22" xlink:href="#b"/><linearGradient id="f" x1="-416.78" y1="76.15" x2="-379.61" y2="86.44" gradientTransform="translate(621.39 311.24) scale(1 -1)" gradientUnits="userSpaceOnUse"><stop offset=".49" stop-color="#fff"/><stop offset="1" stop-color="#fff" stop-opacity="0"/></linearGradient><linearGradient id="g" x1="220.66" y1="-383.55" x2="220.26" y2="-376.6" gradientTransform="translate(621.39 311.24) scale(1 -1)" xlink:href="#b"/><linearGradient id="h" x1="-405.08" y1="-512.34" x2="-406.51" y2="-487.75" gradientTransform="translate(621.39 311.24) scale(1 -1)" xlink:href="#b"/><linearGradient id="i" x1="-158.08" y1="-109.95" x2="-274.23" y2="-109.95" gradientTransform="translate(621.39 311.24) scale(1 -1)" xlink:href="#b"/><linearGradient id="j" x1="-515.44" y1="-888.72" x2="-902.68" y2="-888.72" gradientTransform="translate(-803.45 518.79) rotate(-90) scale(1 -1)" xlink:href="#b"/><linearGradient id="k" x1="53.44" y1="-458.23" x2="53.03" y2="-451.28" gradientTransform="translate(621.39 311.24) scale(1 -1)" xlink:href="#b"/></defs><g><path class="o" d="M1085.07,1530.55h-198.1c-12.97,0-23.48-10.51-23.48-23.48v-318.14c0-12.97-10.51-23.48-23.48-23.48H480.98m100.69-194.99v126.59c0,12.97,10.51,23.48,23.48,23.48h471.24"/><path class="o" d="M335.38,1893.45h314.69c12.97,0,23.48,10.51,23.48,23.48v21.72c0,12.97,10.51,23.48,23.48,23.48h194.88c12.97,0,23.48-10.51,23.48-23.48v-328.19c0-25.94,21.03-46.97,46.97-46.97h117.63"/><g><circle class="aa" cx="915.56" cy="1843.55" r="4.7"/><circle class="q" cx="915.56" cy="1843.55" r="4.1"/></g><path class="o" d="M286.42,2059.01c1.11-75.29-2.18-149.94,1.11-225.69,5.49-16.47,17.56-30.74,35.13-32.93,36.23-5.49,72.45-1.1,108.68-2.2,21.96-1.1,41.72-17.56,42.81-39.52,3.29-59.28-2.2-118.56,3.29-177.84,1.1-16.47,14.27-29.64,29.64-35.13,15.37-4.39,30.74-1.1,46.11-2.2,18.66-2.2,35.13-16.47,40.62-34.03,3.29-75.75,1.1-150.4,0-226.14,0-3.29,1.1-7.68-1.1-12.08s-4.39-7.68-6.59-12.08c-5.49-7.68-14.27-13.17-23.05-16.47-4.39-2.2-7.68-1.1-12.08-1.1-51.6-3.29-102.09,1.1-153.69-2.2-7.68-1.1-14.27-5.49-19.76-9.88-1.1-2.2-3.29-3.29-5.49-5.49-8.78-9.88-9.88-21.96-10.98-34.03-1.1-88.92,0-176.74,.48-265.2"/><path class="v" d="M428.16,1239.96h114.29"/><path class="r" d="M887.48,1120.53h206.26"/><path class="u" d="M1074.93,1531.09h-187.73c-12.97,0-23.48-10.51-23.48-23.48v-20.08"/><g><circle class="a`" cx="863.42" cy="1483.53" r="4.7"/><circle class="q" cx="863.42" cy="1483.53" r="4.1"/></g><path class="m" d="M595.38,1165.27h114.29"/><g><circle class="ab" cx="591.77" cy="1165.47" r="4.7"/><circle class="q" cx="591.77" cy="1165.47" r="4.1"/></g></g><g><path class="o" d="M337.01,400.2h103.14c12.97,0,23.48,10.51,23.48,23.48v318.14c0,12.97,10.51,23.48,23.48,23.48h359.02m-100.69,194.99v-126.59c0-12.97-10.51-23.48-23.48-23.48H8.67"/><path class="o" d="M587.68,282.56c-107.91-1.29-214.91,1.71-322.91-1.29-5-3-10-5-13-11-5-12-1-24-2-36-1-11-11-19-21-19-54-2-183.29-1-237.44-1.4"/><g><circle class="ab" cx="444.33" cy="809.23" r="4.7"/><circle class="q" cx="444.33" cy="809.23" r="4.1"/></g><g><circle class="l" cx="178.47" cy="213.86" r="4.7"/><circle class="q" cx="178.47" cy="213.86" r="4.1"/></g><path class="p" d="M183.16,213.86h42.57c12.97,0,23.48,10.51,23.48,23.48v12.92"/><path class="o" d="M1040.7-128.26c-1.11,75.29,2.18,149.94-1.11,225.69-5.49,16.47-17.56,30.74-35.13,32.93-36.23,5.49-72.45,1.1-108.68,2.2-21.96,1.1-41.72,17.56-42.81,39.52-3.29,59.28,2.2,118.56-3.29,177.84-1.1,16.47-14.27,29.64-29.64,35.13-15.37,4.39-30.74,1.1-46.11,2.2-18.66,2.2-35.13,16.47-40.62,34.03-3.29,75.75-1.1,150.4,0,226.14,0,3.29-1.1,7.68,1.1,12.08,2.2,4.39,4.39,7.68,6.59,12.08,5.49,7.68,14.27,13.17,23.05,16.47,4.39,2.2,7.68,1.1,12.08,1.1,51.6,3.29,102.09-1.1,153.69,2.2,7.68,1.1,14.27,5.49,19.76,9.88,1.1,2.2,3.29,3.29,5.49,5.49,8.78,9.88,9.88,21.96,10.98,34.03,1.1,88.92,0,176.74-.48,265.2"/><path class="w" d="M898.96,690.79h-114.29"/><path class="n" d="M439.64,809.43H-8.67"/><path class="t" d="M347.16,399.66h92.76c12.97,0,23.48,10.51,23.48,23.48v20.08"/><g><circle class="a`" cx="463.7" cy="447.22" r="4.7"/><circle class="q" cx="463.7" cy="447.22" r="4.1"/></g><path class="o" d="M64.29,1431.62c.12-34.68,.12-342.18,.12-377.18,0-8,5-16,13-20,2-1,5-2,7-2,35,0,70,0,105.5,.06"/><path class="x" d="M63.74,1421.47v-365.26c0-12.97,10.51-23.48,23.48-23.48h20.08"/><g><circle class="a`" cx="111.31" cy="1032.44" r="4.7"/><circle class="q" cx="111.31" cy="1032.44" r="4.1"/></g><path class="s" d="M731.73,765.48h-114.29"/><g><circle class="y" cx="735.34" cy="765.28" r="4.7"/><circle class="q" cx="735.34" cy="765.28" r="4.1"/></g></g><circle class="aa" cx="428.16" cy="1239.96" r="4.7"/><path class="q" d="M428.16,1244.05c-2.26,0-4.1-2.19-4.1-4.1"/><path class="q" d="M432.25,1239.96c0,1.9-1.83,4.1-4.1,4.1"/><path class="q" d="M424.06,1239.95c0-2.26,1.83-4.1,4.1-4.1"/><path class="q" d="M428.16,1235.86c2.26,0,4.1,1.83,4.1,4.1"/></svg>