<?xml version="1.0" encoding="UTF-8"?><svg id="a" xmlns="http://www.w3.org/2000/svg" viewBox="0 0 600 901.09"><defs><style>.b{fill:#648765;}</style></defs><path class="b" d="M310.77,742.61c-75.27,0-136.51-61.24-136.51-136.51s61.24-136.51,136.51-136.51,136.51,61.24,136.51,136.51-61.24,136.51-136.51,136.51Zm0-262.22c-69.31,0-125.7,56.39-125.7,125.71s56.39,125.71,125.7,125.71,125.71-56.39,125.71-125.71-56.39-125.71-125.71-125.71Z"/><path class="b" d="M310.77,306.43c-46.72,0-84.74-38.01-84.74-84.74s38.01-84.74,84.74-84.74,84.74,38.01,84.74,84.74-38.01,84.74-84.74,84.74Zm0-158.67c-40.77,0-73.93,33.17-73.93,73.93s33.17,73.93,73.93,73.93,73.93-33.17,73.93-73.93-33.17-73.93-73.93-73.93Z"/><g><path class="b" d="M310.77,764.14c-87.14,0-158.04-70.9-158.04-158.04s67.99-155.09,152.64-157.95v-142.14l10.81-.38v153.24h-5.4c-81.19,0-147.24,66.05-147.24,147.24s66.05,147.24,147.24,147.24c49.54,0,95.46-24.69,122.85-66.05l9.01,5.97c-29.4,44.39-78.69,70.89-131.86,70.89Z"/><polygon class="b" points="425.47 686.97 447.08 674.85 446.78 699.63 425.47 686.97"/></g></svg>