<?xml version="1.0" encoding="UTF-8"?><svg id="a" xmlns="http://www.w3.org/2000/svg" viewBox="0 0 600 901.09"><defs><style>.b{fill:#46a396;}</style></defs><path class="b" d="M310.77,431.5c-75.27,0-136.51-61.24-136.51-136.51s61.24-136.51,136.51-136.51,136.51,61.24,136.51,136.51-61.24,136.51-136.51,136.51Zm0-262.22c-69.31,0-125.7,56.39-125.7,125.71s56.39,125.7,125.7,125.7,125.7-56.39,125.7-125.7-56.39-125.71-125.7-125.71Z"/><path class="b" d="M310.77,764.14c-46.72,0-84.74-38.01-84.74-84.74s38.01-84.74,84.74-84.74,84.74,38.01,84.74,84.74-38.01,84.74-84.74,84.74Zm0-158.67c-40.77,0-73.93,33.17-73.93,73.93s33.17,73.93,73.93,73.93,73.93-33.17,73.93-73.93-33.17-73.93-73.93-73.93Z"/><g><path class="b" d="M316.17,595.3l-10.84,.45,.03-142.81c-84.65-2.86-152.64-72.62-152.64-157.95s70.9-158.04,158.04-158.04c53.17,0,102.46,26.5,131.86,70.89l-9.01,5.97c-27.39-41.36-73.32-66.05-122.85-66.05-81.19,0-147.24,66.05-147.24,147.24s66.05,147.24,147.24,147.24h5.4v153.07Z"/><polygon class="b" points="446.78 201.46 447.08 226.24 425.47 214.11 446.78 201.46"/></g></svg>